<?xml version="1.0" encoding="utf-8"?>
<!-- Generator: Adobe Illustrator 21.0.2, SVG Export Plug-In . SVG Version: 6.00 Build 0)  -->
<svg version="1.1" id="Capa_1" xmlns="http://www.w3.org/2000/svg" xmlns:xlink="http://www.w3.org/1999/xlink" x="0px" y="0px"
	 viewBox="0 0 1208 694.7" style="enable-background:new 0 0 1208 694.7;" xml:space="preserve">
<style type="text/css">
	.st0{enable-background:new    ;}
	.st1{fill:#EBEBEB;}
	.st2{fill:none;stroke:#C5C5C5;stroke-miterlimit:10;}
	.st3{fill:none;stroke:#ACACAC;stroke-width:2;stroke-miterlimit:10;}
	.st4{fill:#ACACAC;}
	.st5{font-family:'MyriadPro-Regular';}
	.st6{font-size:7.5695px;}
	.st7{fill:#4D4D4D;}
	.st8{font-size:9.1915px;}
	.st9{fill:#808080;}
	.st10{font-size:7.0288px;}
	.st11{fill:#BA272D;}
	.st12{font-family:'FontAwesome';}
	.st13{opacity:0.2;}
	.st14{fill:#FFFFFF;}
	.st15{fill:#C5C5C5;}
	.st16{fill:none;stroke:#3CBF83;stroke-width:3;stroke-miterlimit:10;}
	.st17{fill:#3CBF83;}
	.st18{font-family:'Elephant-Regular';}
	.st19{font-size:10.2961px;}
	.st20{font-size:17.8424px;}
	.st21{fill:#29A4DB;}
	.st22{font-size:6.4881px;}
	.st23{font-size:20.3793px;}
	.st24{fill:#EBEBEB;stroke:#808080;stroke-miterlimit:10;}
	.st25{font-size:8.6509px;}
	.st26{fill:#D2FFAE;stroke:#81AA61;stroke-miterlimit:10;}
</style>
<image style="overflow:visible;enable-background:new    ;" width="1208" height="705" xlink:href="56412BCC.png"  transform="matrix(1 0 0 1 0 -2.6673)">
</image>
<g>
	<rect x="130.6" y="30.6" class="st0" width="948" height="597"/>
	
		<image style="overflow:visible;" width="1200" height="1200" xlink:href="../AppData/Local/Temp/Rar$DRa0.530/245.jpg"  transform="matrix(0.6167 0 0 0.3965 326.9177 100.3713)">
	</image>
	<g id="Fondo_2_">
		<rect id="Top_4_" x="140.1" y="46" class="st1" width="926.9" height="54.1"/>
		<rect id="Left_1_" x="140.1" y="100.4" class="st1" width="186.8" height="481.1"/>
		<rect id="Bottom_3_" x="140.1" y="575.9" class="st1" width="926.9" height="38.9"/>
		<line class="st2" x1="140.1" y1="100.4" x2="1067" y2="100.4"/>
		<line class="st2" x1="140.1" y1="576.2" x2="1067" y2="576.2"/>
		<line class="st2" x1="326.7" y1="46" x2="326.7" y2="614.8"/>
	</g>
	<g id="MenuIzq_1_">
		<g id="Menu_2_">
			<line class="st3" x1="163.2" y1="67.4" x2="181.4" y2="67.4"/>
			<line class="st3" x1="163.2" y1="72.8" x2="181.4" y2="72.8"/>
			<line class="st3" x1="163.2" y1="78.2" x2="181.4" y2="78.2"/>
		</g>
		<path class="st2" d="M316.9,82.9H196.7c-1.7,0-3-1.3-3-3V65.7c0-1.7,1.3-3,3-3h120.2c1.7,0,3,1.3,3,3v14.2
			C319.9,81.5,318.5,82.9,316.9,82.9z"/>
		<text transform="matrix(0.9093 0 0 1 200.2441 75.5908)" class="st4 st5 st6">Buscar . . .</text>
	</g>
	<g id="Contactos_1_">
		<g id="Contacto_1_1_">
			<g>
				<g>
					<text transform="matrix(0.9093 0 0 1 198.2778 120.9595)" class="st7 st5 st8">Susana</text>
					<g>
						<text transform="matrix(0.9093 0 0 1 198.2778 135.1055)" class="st9 st5 st8">El otro día vi una cosa asombr...</text>
					</g>
					<text transform="matrix(0.9093 0 0 1 302.0903 120.9595)" class="st4 st5 st10">19:56</text>
				</g>
				<g>
					<defs>
						<ellipse id="SVGID_1_" cx="172.1" cy="125.2" rx="15.7" ry="17.3"/>
					</defs>
					<clipPath id="SVGID_2_">
						<use xlink:href="#SVGID_1_"  style="overflow:visible;"/>
					</clipPath>
					<g transform="matrix(1 0 0 1 0 0)" style="clip-path:url(#SVGID_2_);">
						
							<image style="overflow:visible;" width="300" height="300" xlink:href="../Downloads/Nueva carpeta/eli-defaria-14556.jpg"  transform="matrix(0.1131 0 0 0.1244 155.3452 106.5891)">
						</image>
					</g>
				</g>
			</g>
			<line class="st2" x1="140.1" y1="150.1" x2="326.9" y2="150.1"/>
		</g>
		<g id="Contacto_2_1_">
			<g>
				<g>
					<text transform="matrix(0.9093 0 0 1 198.2778 170.7871)" class="st7 st5 st8">Antonio Megias</text>
					<g>
						<text transform="matrix(0.9093 0 0 1 198.2778 184.9321)" class="st9 st5 st8">¿ A qué hora hemos quedado ?</text>
					</g>
					<text transform="matrix(0.9093 0 0 1 302.0903 170.7871)" class="st4 st5 st10">19:41</text>
				</g>
				<g>
					<defs>
						<ellipse id="SVGID_3_" cx="172.1" cy="175" rx="15.7" ry="17.3"/>
					</defs>
					<clipPath id="SVGID_4_">
						<use xlink:href="#SVGID_3_"  style="overflow:visible;"/>
					</clipPath>
					<g style="clip-path:url(#SVGID_4_);">
						
							<image style="overflow:visible;" width="500" height="500" xlink:href="../Downloads/Nueva carpeta/sander-smeekes-18409.jpg"  transform="matrix(7.177533e-02 0 0 7.893902e-02 153.8704 154.7095)">
						</image>
					</g>
				</g>
			</g>
			<line class="st2" x1="140.1" y1="199.9" x2="326.9" y2="199.9"/>
		</g>
		<g id="Contacto_3_1_">
			<g>
				<g>
					<text transform="matrix(0.9093 0 0 1 198.2778 220.9844)" class="st7 st5 st8">Jose GYM</text>
					<g>
						<text transform="matrix(0.9093 0 0 1 198.2778 235.1309)" class="st9 st5 st8">La clase se ha atrasado hasta ...</text>
					</g>
					<text transform="matrix(0.9093 0 0 1 302.0903 220.9844)" class="st4 st5 st10">19:38</text>
				</g>
				<g>
					<defs>
						<ellipse id="SVGID_5_" cx="172.1" cy="225.2" rx="15.7" ry="17.3"/>
					</defs>
					<clipPath id="SVGID_6_">
						<use xlink:href="#SVGID_5_"  style="overflow:visible;"/>
					</clipPath>
					<g style="clip-path:url(#SVGID_6_);">
						
							<image style="overflow:visible;" width="500" height="500" xlink:href="../Downloads/Nueva carpeta/cam-adams-235137.jpg"  transform="matrix(6.685922e-02 0 0 7.353224e-02 155.3452 206.6146)">
						</image>
					</g>
				</g>
			</g>
			<line class="st2" x1="140.1" y1="250.1" x2="326.9" y2="250.1"/>
		</g>
		<g id="Contacto_4_1_">
			<g>
				<g>
					<text transform="matrix(0.9093 0 0 1 197.7861 270.7246)" class="st7 st5 st8">María</text>
					<g>
						<text transform="matrix(0.9093 0 0 1 197.7861 284.875)"><tspan x="0" y="0" class="st11 st12 st8"></tspan><tspan x="18.4" y="0" class="st9 st5 st8"> te echo de menos </tspan><tspan x="90.5" y="0" class="st11 st12 st8"></tspan></text>
					</g>
					<text transform="matrix(0.9093 0 0 1 301.5981 270.7246)" class="st4 st5 st10">13:11</text>
				</g>
				<g>
					<defs>
						<ellipse id="SVGID_7_" cx="171.6" cy="274.9" rx="15.7" ry="17.3"/>
					</defs>
					<clipPath id="SVGID_8_">
						<use xlink:href="#SVGID_7_"  style="overflow:visible;"/>
					</clipPath>
					<g style="clip-path:url(#SVGID_8_);">
						
							<image style="overflow:visible;" width="500" height="500" xlink:href="../Downloads/Nueva carpeta/chad-madden-229821.jpg"  transform="matrix(6.791925e-02 0 0 7.469808e-02 154.8152 256.357)">
						</image>
					</g>
				</g>
			</g>
			<line class="st2" x1="139.6" y1="299.9" x2="326.4" y2="299.9"/>
		</g>
		<g id="Contacto_5_1_">
			<g>
				<g>
					<text transform="matrix(0.9093 0 0 1 198.2778 321.0107)" class="st7 st5 st8">Borja</text>
					<g>
						<text transform="matrix(0.9093 0 0 1 198.2778 335.1572)" class="st9 st5 st8">Al final, es como siempre </text>
					</g>
					<text transform="matrix(0.9093 0 0 1 302.0903 321.0107)" class="st4 st5 st10">AYER</text>
				</g>
				<g>
					<defs>
						<ellipse id="SVGID_9_" cx="172.1" cy="325.2" rx="15.7" ry="17.3"/>
					</defs>
					<clipPath id="SVGID_10_">
						<use xlink:href="#SVGID_9_"  style="overflow:visible;"/>
					</clipPath>
					<g transform="matrix(1 0 0 1 0 -3.051758e-05)" style="clip-path:url(#SVGID_10_);">
						
							<image style="overflow:visible;" width="500" height="500" xlink:href="../Downloads/Nueva carpeta/dan-gold-223242.jpg"  transform="matrix(6.685922e-02 0 0 7.353224e-02 155.3452 306.64)">
						</image>
					</g>
				</g>
			</g>
			<line class="st2" x1="140.1" y1="350.2" x2="326.9" y2="350.2"/>
		</g>
		<g id="Contacto_6_1_">
			<g>
				<g>
					<text transform="matrix(0.9093 0 0 1 198.2778 371.3789)" class="st7 st5 st8">Agustin F.</text>
					<g>
						<text transform="matrix(0.9093 0 0 1 198.2778 385.5244)" class="st9 st5 st8">bah... al final no ha habido suer...</text>
					</g>
					<text transform="matrix(0.9093 0 0 1 287.3423 370.2969)" class="st4 st5 st10">19/05/2017</text>
				</g>
				<g>
					<defs>
						<ellipse id="SVGID_11_" cx="172.1" cy="375.6" rx="15.7" ry="17.3"/>
					</defs>
					<clipPath id="SVGID_12_">
						<use xlink:href="#SVGID_11_"  style="overflow:visible;"/>
					</clipPath>
					<g style="clip-path:url(#SVGID_12_);">
						
							<image style="overflow:visible;" width="500" height="500" xlink:href="../Downloads/Nueva carpeta/jc-bonassin-198103.jpg"  transform="matrix(6.784244e-02 0 0 7.461360e-02 155.0994 356.9231)">
						</image>
					</g>
				</g>
			</g>
			<line class="st2" x1="140.1" y1="400.4" x2="326.9" y2="400.4"/>
		</g>
		<g id="Contacto_7_1_">
			<g>
				<g>
					<text transform="matrix(0.9093 0 0 1 198.2778 421.5752)"><tspan x="0" y="0" class="st7 st12 st8"></tspan><tspan x="9.8" y="0" class="st7 st5 st8"> Family</tspan></text>
					<g>
						<text transform="matrix(0.9093 0 0 1 198.2778 435.7227)" class="st9 st5 st8">@Mama: La comida estara lista ...</text>
					</g>
					<text transform="matrix(0.9093 0 0 1 287.3423 421.5752)" class="st4 st5 st10">19/05/2017</text>
				</g>
				<g>
					<defs>
						<ellipse id="SVGID_13_" cx="172.1" cy="425.8" rx="15.7" ry="17.3"/>
					</defs>
					<clipPath id="SVGID_14_">
						<use xlink:href="#SVGID_13_"  style="overflow:visible;"/>
					</clipPath>
					<g style="clip-path:url(#SVGID_14_);">
						
							<image style="overflow:visible;" width="500" height="500" xlink:href="../Downloads/Nueva carpeta/jonathan-andreo-249975.jpg"  transform="matrix(6.980889e-02 0 0 7.677631e-02 154.8536 406.6655)">
						</image>
					</g>
				</g>
			</g>
			<line class="st2" x1="140.1" y1="450.7" x2="326.9" y2="450.7"/>
		</g>
		<g id="Contacto_8_1_">
			<g>
				<g>
					<defs>
						<ellipse id="SVGID_15_" cx="171.6" cy="475.5" rx="15.7" ry="17.3"/>
					</defs>
					<clipPath id="SVGID_16_">
						<use xlink:href="#SVGID_15_"  style="overflow:visible;"/>
					</clipPath>
					<g transform="matrix(1 0 0 1 0 3.051758e-05)" style="clip-path:url(#SVGID_16_);">
						
							<image style="overflow:visible;" width="500" height="500" xlink:href="../Downloads/Nueva carpeta/zivile-arunas-207539.jpg"  transform="matrix(6.882566e-02 0 0 7.569496e-02 154.362 456.4079)">
						</image>
					</g>
				</g>
				<g>
					<text transform="matrix(0.9093 0 0 1 197.7861 471.3164)" class="st7 st5 st8">Tomas</text>
					<g>
						<text transform="matrix(0.9093 0 0 1 197.7861 485.4668)" class="st9 st5 st8">Estoy en el parque con Juan</text>
					</g>
					<text transform="matrix(0.9093 0 0 1 287.3423 471.3174)" class="st4 st5 st10">20/05/2017</text>
				</g>
			</g>
			<line class="st2" x1="139.6" y1="500.5" x2="326.4" y2="500.5"/>
		</g>
		<g id="Contacto_9_1_">
			<g>
				<g>
					<defs>
						<ellipse id="SVGID_17_" cx="172.1" cy="525.8" rx="15.7" ry="17.3"/>
					</defs>
					<clipPath id="SVGID_18_">
						<use xlink:href="#SVGID_17_"  style="overflow:visible;"/>
					</clipPath>
					<g transform="matrix(1 0 0 1 0 0)" style="clip-path:url(#SVGID_18_);">
						
							<image style="overflow:visible;" width="500" height="500" xlink:href="../Downloads/Nueva carpeta/freestocks-org-227646.jpg"  transform="matrix(6.587599e-02 0 0 7.245088e-02 155.8368 507.7723)">
						</image>
					</g>
				</g>
				<g>
					<text transform="matrix(0.9093 0 0 1 198.2778 521.6025)" class="st7 st5 st8">Manu</text>
					<g>
						<text transform="matrix(0.9093 0 0 1 198.2778 535.748)" class="st9 st5 st8">...</text>
					</g>
					<text transform="matrix(0.9093 0 0 1 287.3423 521.6025)" class="st4 st5 st10">18/05/2017</text>
				</g>
			</g>
			<line class="st2" x1="140.1" y1="550.8" x2="326.9" y2="550.8"/>
		</g>
		<g id="Contacto_10_1_">
			<g>
				<g class="st13">
					<defs>
						<ellipse id="SVGID_19_" class="st13" cx="172.1" cy="577.7" rx="15.7" ry="17.3"/>
					</defs>
					<linearGradient id="SVGID_20_" gradientUnits="userSpaceOnUse" x1="172.06" y1="595.0243" x2="172.06" y2="560.4209">
						<stop  offset="0" style="stop-color:#FFFFFF;stop-opacity:0"/>
						<stop  offset="0.2539" style="stop-color:#FCFCFC;stop-opacity:0.2539"/>
						<stop  offset="0.4198" style="stop-color:#F4F4F4;stop-opacity:0.4198"/>
						<stop  offset="0.5605" style="stop-color:#E5E5E5;stop-opacity:0.5605"/>
						<stop  offset="0.6871" style="stop-color:#CFCFCF;stop-opacity:0.6871"/>
						<stop  offset="0.8044" style="stop-color:#B4B4B4;stop-opacity:0.8044"/>
						<stop  offset="0.9131" style="stop-color:#939393;stop-opacity:0.9131"/>
						<stop  offset="1" style="stop-color:#737373"/>
					</linearGradient>
					<use xlink:href="#SVGID_19_"  style="overflow:visible;fill:url(#SVGID_20_);"/>
					<clipPath id="SVGID_21_">
						<use xlink:href="#SVGID_19_"  style="overflow:visible;"/>
					</clipPath>
					<g style="clip-path:url(#SVGID_21_);">
						
							<image style="overflow:visible;" width="500" height="500" xlink:href="../Downloads/Nueva carpeta/brooke-cagle-32429.jpg"  transform="matrix(6.489277e-02 0 0 7.136953e-02 154.6078 560.2181)">
						</image>
					</g>
				</g>
				<rect x="153.4" y="576.4" class="st14" width="36.4" height="20.5"/>
				<g>
					<g>
						<text transform="matrix(0.9093 0 0 1 198.2778 573.5068)" class="st15 st5 st8">Jaime Molina</text>
					</g>
					<g>
						<text transform="matrix(0.9093 0 0 1 287.3423 573.5068)" class="st4 st5 st10">17/05/2017</text>
					</g>
				</g>
			</g>
		</g>
	</g>
	<g id="Add_1_">
		<ellipse class="st16" cx="233.1" cy="596.8" rx="10" ry="11"/>
		<text transform="matrix(0.9093 0 0 1 229.2407 599.7314)" class="st17 st18 st19">+</text>
	</g>
	<g id="Bottom_2_">
		<text transform="matrix(0.8685 0 0 1 346.7495 599.6875)" class="st9 st5 st8">Escribe aqui su mensaje ...</text>
		<text transform="matrix(-0.8685 0 0 1 1041.6855 599.9932)" class="st9 st12 st20">          </text>
	</g>
	<g id="Top_3_">
		<g>
			<ellipse class="st4" cx="1029.6" cy="65.7" rx="2" ry="2.2"/>
			<ellipse class="st4" cx="1029.6" cy="80.4" rx="2" ry="2.2"/>
			<ellipse class="st4" cx="1029.6" cy="73.1" rx="2" ry="2.2"/>
		</g>
		<g>
			<g>
				<text transform="matrix(0.9093 0 0 1 401.8047 69.0532)" class="st7 st5 st8">Susana</text>
				<g>
					<text transform="matrix(0.9093 0 0 1 401.8047 83.2012)"><tspan x="0" y="0" class="st21 st5 st8">@</tspan><tspan x="6.8" y="0" class="st21 st5 st22">En linea</tspan></text>
				</g>
			</g>
			<g>
				<defs>
					<ellipse id="SVGID_22_" cx="375.6" cy="73.3" rx="15.7" ry="17.3"/>
				</defs>
				<clipPath id="SVGID_23_">
					<use xlink:href="#SVGID_22_"  style="overflow:visible;"/>
				</clipPath>
				<g transform="matrix(1 0 0 1 0 0)" style="clip-path:url(#SVGID_23_);">
					
						<image style="overflow:visible;" width="300" height="300" xlink:href="../Downloads/Nueva carpeta/eli-defaria-14556.jpg"  transform="matrix(0.1131 0 0 0.1244 358.8725 54.684)">
					</image>
				</g>
			</g>
		</g>
		<text transform="matrix(0.9093 0 0 1 979.4424 79.3438)" class="st4 st12 st23"></text>
	</g>
	<g id="Mensaje1_5_">
		<path class="st24" d="M647.1,186.9H385.6c-11,0-20-9-20-20v-28.4h271.5c11,0,20,9,20,20v18.4C657.1,182.4,652.6,186.9,647.1,186.9
			z"/>
		<text transform="matrix(0.9093 0 0 1 391.0791 156.6592)"><tspan x="0" y="0" class="st7 st5 st8">Me e enterado de que hace dos dias te paso algo interesante, cuentame</tspan><tspan x="273.8" y="0" class="st7 st5 st25"> </tspan></text>
		<g>
			<text transform="matrix(0.9093 0 0 1 636.6338 178.4985)" class="st9 st5 st10">19:55</text>
		</g>
	</g>
	<g id="Mensaje2_2_">
		<path class="st26" d="M1034.6,286.9H763c-11,0-20-9-20-20v-37.3c0-5.5,4.5-10,10-10h261.5c11,0,20,9,20,20V286.9z"/>
		<g>
			<text transform="matrix(0.9093 0 0 1 763.6631 242.0908)"><tspan x="0" y="0" class="st7 st5 st8">El otro día vi una cosa asombrosa, cuando iba por la calle vi a una persona</tspan><tspan x="0" y="11" class="st7 st5 st8">identica a Chuck Norris, y cuando me acerque para ablar con el, resulta</tspan><tspan x="0" y="22.1" class="st7 st5 st8">que era el autentico y ahora tengo un autografo de el, xD</tspan></text>
		</g>
		<text transform="matrix(0.9093 0 0 1 1004.5664 276.9121)" class="st9 st5 st10">19:56</text>
	</g>
</g>
</svg>
